<svg width="468" height="280" viewBox="0 0 468 280" fill="none" xmlns="http://www.w3.org/2000/svg">
<path d="M44.1982 65.2426L101.876 47.3057L57.5035 78.0453L44.1982 65.2426Z" fill="#5FBBE8"/>
<path d="M101.876 47.3057L39.752 57.5523L26.4468 44.7386L101.876 47.3057Z" fill="#5FBBE8"/>
<path d="M39.752 57.5522V72.922L44.198 65.2426L101.876 47.3057L39.752 57.5522Z" fill="#455A64"/>
<path d="M39.752 72.922L48.633 69.5138L44.198 65.2426L39.752 72.922Z" fill="#5FBBE8"/>
<path d="M44.1982 65.2426L48.6333 69.5138L47.2132 70.049L44.1982 65.2426Z" fill="#455A64"/>
<path d="M30.1935 70.6062C30.0098 70.6096 29.8303 70.5513 29.6838 70.4404C29.5373 70.3296 29.4323 70.1727 29.3857 69.995C29.3391 69.8173 29.3535 69.6291 29.4267 69.4606C29.4999 69.2921 29.6276 69.1531 29.7893 69.0659C30.7724 68.5198 31.7665 67.9736 32.7497 67.5475C32.8472 67.4948 32.9543 67.4624 33.0647 67.4523C33.1751 67.4422 33.2864 67.4545 33.3918 67.4887C33.4973 67.5228 33.5947 67.578 33.6782 67.6509C33.7617 67.7238 33.8296 67.8129 33.8777 67.9127C33.9258 68.0126 33.9531 68.1212 33.958 68.2319C33.9629 68.3426 33.9453 68.4532 33.9062 68.5569C33.8671 68.6607 33.8074 68.7554 33.7306 68.8354C33.6539 68.9153 33.5617 68.9789 33.4597 69.0223C32.5093 69.4811 31.5371 69.9726 30.5867 70.5079C30.4652 70.571 30.3305 70.6047 30.1935 70.6062Z" fill="#E0E0E0"/>
<path d="M20.1111 158.827C19.9437 158.829 19.7797 158.779 19.6414 158.685C17.8648 157.433 16.1817 156.053 14.6055 154.556C14.5056 154.491 14.421 154.405 14.3577 154.304C14.2944 154.204 14.2538 154.09 14.2388 153.972C14.2238 153.854 14.2347 153.734 14.2708 153.62C14.3069 153.507 14.3673 153.403 14.4478 153.315C14.5283 153.227 14.627 153.158 14.737 153.112C14.8469 153.066 14.9655 153.045 15.0845 153.05C15.2035 153.055 15.32 153.086 15.426 153.14C15.5319 153.194 15.6247 153.271 15.6979 153.365C17.2182 154.808 18.843 156.137 20.559 157.341C20.7004 157.443 20.806 157.586 20.8604 157.751C20.9148 157.916 20.9153 158.095 20.8618 158.26C20.8083 158.425 20.7035 158.57 20.5627 158.672C20.4218 158.773 20.2522 158.828 20.0783 158.827H20.1111ZM11.5468 150.875C11.4258 150.876 11.3061 150.85 11.1965 150.799C11.0868 150.748 10.99 150.673 10.9132 150.58C9.53673 148.9 8.28446 147.122 7.16633 145.26C7.05334 145.073 7.01921 144.849 7.07145 144.637C7.12369 144.425 7.25802 144.242 7.44489 144.129C7.63176 144.016 7.85586 143.982 8.06789 144.034C8.27992 144.086 8.46252 144.221 8.57551 144.408C9.65257 146.203 10.8573 147.919 12.1804 149.542C12.3168 149.709 12.3819 149.923 12.3614 150.138C12.341 150.353 12.2367 150.551 12.0711 150.689C11.9248 150.813 11.7384 150.879 11.5468 150.875ZM5.39667 140.934C5.23798 140.935 5.08227 140.891 4.94847 140.805C4.81466 140.72 4.70851 140.598 4.64293 140.453C3.75027 138.476 2.98406 136.443 2.34892 134.369C2.30231 134.167 2.33389 133.955 2.4373 133.775C2.54071 133.596 2.70827 133.462 2.90626 133.401C3.10425 133.34 3.31797 133.357 3.50439 133.447C3.69082 133.537 3.83611 133.695 3.91103 133.888C4.51491 135.895 5.24461 137.861 6.0958 139.776C6.14157 139.874 6.16743 139.98 6.17186 140.089C6.1763 140.197 6.15923 140.305 6.12164 140.406C6.08405 140.508 6.02669 140.601 5.95288 140.68C5.87907 140.76 5.79027 140.824 5.69162 140.868C5.59864 140.91 5.49837 140.932 5.39667 140.934ZM1.84643 129.781C1.65695 129.779 1.47394 129.712 1.32854 129.59C1.18314 129.469 1.08435 129.3 1.04899 129.114C0.631988 126.992 0.336562 124.847 0.164155 122.691C0.146771 122.474 0.216417 122.258 0.357771 122.093C0.499126 121.927 0.700609 121.824 0.917898 121.806C1.13519 121.789 1.35048 121.859 1.51642 122C1.68236 122.141 1.78535 122.343 1.80273 122.56C1.96342 124.654 2.24794 126.737 2.65479 128.798C2.67698 128.903 2.67783 129.012 2.65728 129.118C2.63673 129.224 2.59521 129.324 2.53515 129.414C2.47509 129.504 2.39771 129.58 2.30757 129.639C2.21743 129.699 2.11635 129.739 2.01028 129.759L1.84643 129.781ZM0.808661 118.114C0.700641 118.114 0.593708 118.092 0.494182 118.05C0.394655 118.008 0.304551 117.947 0.229195 117.87C0.153839 117.792 0.0947578 117.7 0.0554429 117.6C0.0161279 117.499 -0.00262415 117.392 0.000295308 117.284C0.0258451 115.122 0.171724 112.963 0.43725 110.817C0.438501 110.702 0.464028 110.588 0.512163 110.483C0.560297 110.379 0.629955 110.285 0.716597 110.21C0.803239 110.134 0.904915 110.077 1.01499 110.043C1.12506 110.009 1.24106 109.999 1.3554 110.012C1.46975 110.026 1.57988 110.064 1.67861 110.124C1.77733 110.183 1.86243 110.262 1.92835 110.357C1.99427 110.451 2.03954 110.559 2.06118 110.672C2.08283 110.785 2.08037 110.901 2.05398 111.013C1.80141 113.102 1.66283 115.202 1.63887 117.306C1.63745 117.413 1.61484 117.519 1.57235 117.618C1.52985 117.717 1.4683 117.807 1.39121 117.882C1.31411 117.957 1.22299 118.016 1.12303 118.056C1.02308 118.096 0.916254 118.115 0.808661 118.114ZM2.14137 106.48C2.07992 106.491 2.01711 106.491 1.95566 106.48C1.74456 106.433 1.56064 106.304 1.44399 106.122C1.32735 105.94 1.28745 105.719 1.333 105.508C1.81166 103.392 2.42463 101.308 3.16821 99.2704C3.20441 99.164 3.26209 99.0663 3.33768 98.9831C3.41327 98.9 3.50514 98.8333 3.60759 98.7872C3.71004 98.7411 3.82088 98.7166 3.93322 98.7151C4.04555 98.7137 4.15699 98.7354 4.26059 98.7788C4.366 98.8163 4.46273 98.8748 4.54497 98.9506C4.62722 99.0265 4.69328 99.1182 4.7392 99.2202C4.78511 99.3223 4.80993 99.4325 4.81216 99.5444C4.81439 99.6563 4.79398 99.7674 4.75217 99.8712C4.0354 101.842 3.44433 103.856 2.98251 105.901C2.92855 106.079 2.81596 106.233 2.66317 106.338C2.51037 106.443 2.32641 106.493 2.14137 106.48ZM6.03025 95.447C5.9043 95.452 5.77946 95.4218 5.66977 95.3597C5.57202 95.3141 5.48438 95.2494 5.412 95.1694C5.33963 95.0895 5.28399 94.9958 5.24836 94.894C5.21273 94.7922 5.19783 94.6843 5.20454 94.5767C5.21125 94.4691 5.23944 94.3639 5.28743 94.2673C6.24089 92.3205 7.31346 90.4344 8.49904 88.6196C8.61842 88.4504 8.79745 88.3327 9.00012 88.2901C9.20279 88.2476 9.41406 88.2833 9.59143 88.3902C9.76458 88.5062 9.88624 88.6846 9.93102 88.8882C9.9758 89.0917 9.94023 89.3047 9.83175 89.4826C8.67939 91.2355 7.63953 93.0598 6.71846 94.9445C6.66192 95.0841 6.56754 95.2051 6.44594 95.2938C6.32435 95.3826 6.18038 95.4357 6.03025 95.447ZM12.3115 85.6156C12.1287 85.6175 11.9511 85.5557 11.809 85.4408C11.7238 85.3738 11.6528 85.2905 11.6 85.1958C11.5473 85.1011 11.5138 84.9969 11.5016 84.8892C11.4895 84.7815 11.4987 84.6725 11.529 84.5684C11.5593 84.4643 11.6099 84.3673 11.6779 84.2829C13.043 82.5965 14.5018 80.9881 16.0474 79.4655C16.201 79.3121 16.4093 79.2259 16.6264 79.2259C16.8435 79.2259 17.0517 79.3121 17.2053 79.4655C17.3588 79.6191 17.4449 79.8273 17.4449 80.0444C17.4449 80.2616 17.3588 80.4698 17.2053 80.6234C15.7166 82.1086 14.3091 83.673 12.9887 85.3097C12.9041 85.4032 12.7988 85.4756 12.6812 85.5212C12.5636 85.5667 12.437 85.5841 12.3115 85.5719V85.6156ZM20.5262 77.2261C20.4071 77.2258 20.2895 77.1993 20.1819 77.1483C20.0742 77.0973 19.9792 77.0231 19.9035 76.9311C19.7651 76.7637 19.6979 76.5486 19.7163 76.3321C19.7347 76.1156 19.8372 75.915 20.0018 75.7732C21.6648 74.3903 23.3966 73.0924 25.1907 71.8843C25.3668 71.7763 25.5771 71.7388 25.7797 71.7793C25.9823 71.8199 26.1621 71.9354 26.2831 72.1028C26.405 72.2843 26.4504 72.5065 26.4095 72.7212C26.3686 72.936 26.2447 73.1259 26.0646 73.2498C24.3143 74.4251 22.6261 75.6903 21.0068 77.0404C20.8696 77.1504 20.7017 77.2153 20.5262 77.2261Z" fill="#E0E0E0"/>
<path d="M27.6263 163.098C27.5091 163.099 27.3932 163.073 27.2877 163.022C26.2718 162.563 25.2668 162.072 24.3055 161.547C24.2115 161.498 24.1282 161.43 24.0603 161.349C23.9924 161.267 23.9412 161.173 23.9098 161.071C23.8783 160.97 23.8672 160.863 23.877 160.757C23.8868 160.652 23.9173 160.549 23.9668 160.455C24.0688 160.267 24.2401 160.127 24.4442 160.063C24.6482 160 24.8689 160.019 25.0592 160.116C25.9987 160.619 26.9709 161.099 27.954 161.547C28.1226 161.626 28.2596 161.759 28.3423 161.926C28.425 162.092 28.4486 162.282 28.4092 162.464C28.3698 162.645 28.2697 162.808 28.1255 162.926C27.9812 163.043 27.8013 163.108 27.6154 163.109L27.6263 163.098Z" fill="#E0E0E0"/>
<path d="M401.277 123.456L447.485 93.874L467.836 100.406L401.277 123.456Z" fill="#5FBBE8"/>
<path d="M401.277 123.456L441.214 90.1598L432.333 79.9133L401.277 123.456Z" fill="#5FBBE8"/>
<path d="M441.214 90.1599V97.8831L401.277 123.456L441.214 90.1599Z" fill="#455A64"/>
<path d="M450.226 86.9374C450.028 86.9381 449.837 86.864 449.691 86.7298C449.529 86.585 449.431 86.3828 449.417 86.1664C449.402 85.95 449.473 85.7366 449.614 85.5719C451.037 83.9851 452.299 82.2617 453.383 80.4268C453.493 80.2384 453.674 80.1016 453.885 80.0463C454.096 79.9909 454.32 80.0217 454.508 80.1318C454.697 80.2419 454.834 80.4223 454.889 80.6333C454.944 80.8443 454.913 81.0687 454.803 81.257C453.659 83.1805 452.335 84.991 450.849 86.6643C450.771 86.7517 450.675 86.8213 450.567 86.8685C450.46 86.9156 450.343 86.9391 450.226 86.9374ZM456.475 76.7564C456.377 76.7719 456.277 76.7719 456.18 76.7564C456.076 76.7168 455.982 76.6567 455.902 76.5797C455.823 76.5027 455.76 76.4104 455.717 76.3083C455.674 76.2062 455.652 76.0964 455.653 75.9857C455.654 75.875 455.677 75.7655 455.721 75.664C456.493 73.6742 457.071 71.6147 457.447 69.5139C457.486 69.2995 457.609 69.1094 457.788 68.9854C457.967 68.8615 458.188 68.8139 458.403 68.853C458.617 68.8921 458.807 69.0147 458.931 69.194C459.055 69.3733 459.103 69.5944 459.064 69.8088C458.661 72.0101 458.05 74.1682 457.239 76.2539C457.178 76.4051 457.071 76.534 456.935 76.6237C456.798 76.7134 456.638 76.7597 456.475 76.7564ZM458.812 65.0351C458.705 65.0337 458.599 65.011 458.501 64.9684C458.403 64.9257 458.314 64.864 458.24 64.7868C458.166 64.7095 458.108 64.6183 458.069 64.5184C458.03 64.4185 458.012 64.3119 458.015 64.2049C458.015 63.9209 458.015 63.6368 458.015 63.3528C458.01 61.4983 457.864 59.6468 457.578 57.8144C457.546 57.5989 457.601 57.3796 457.73 57.2038C457.858 57.0281 458.051 56.91 458.266 56.875C458.481 56.8463 458.699 56.902 458.874 57.0302C459.049 57.1585 459.168 57.3494 459.206 57.5632C459.501 59.479 459.651 61.4144 459.653 63.3528C459.653 63.6478 459.653 63.9427 459.653 64.2376C459.645 64.454 459.552 64.6585 459.395 64.8074C459.238 64.9564 459.029 65.0381 458.812 65.0351ZM457.163 53.1936C456.987 53.1931 456.816 53.1351 456.676 53.0287C456.536 52.9222 456.435 52.7731 456.387 52.6038C455.761 50.5541 454.975 48.5563 454.039 46.6284C453.991 46.5318 453.962 46.4266 453.956 46.319C453.949 46.2113 453.964 46.1034 454 46.0016C454.035 45.8999 454.091 45.8062 454.163 45.7263C454.236 45.6463 454.323 45.5816 454.421 45.5361C454.617 45.4421 454.841 45.4297 455.046 45.5013C455.251 45.573 455.419 45.723 455.513 45.9184C456.49 47.9217 457.305 50.0003 457.949 52.134C457.981 52.2366 457.992 52.3445 457.982 52.4513C457.972 52.5582 457.94 52.662 457.889 52.7565C457.839 52.8511 457.769 52.9346 457.686 53.0022C457.602 53.0697 457.506 53.12 457.403 53.15C457.327 53.1802 457.245 53.1951 457.163 53.1936ZM452.094 42.3463C451.956 42.3476 451.82 42.313 451.7 42.246C451.579 42.179 451.478 42.0818 451.406 41.964C450.235 40.1662 448.947 38.4475 447.55 36.8188C447.479 36.7372 447.426 36.6424 447.392 36.5399C447.358 36.4374 447.345 36.3293 447.353 36.2217C447.361 36.1141 447.39 36.0092 447.439 35.913C447.488 35.8167 447.555 35.7311 447.637 35.6609C447.718 35.5907 447.812 35.5372 447.913 35.5036C448.015 35.47 448.122 35.4568 448.229 35.4649C448.336 35.4731 448.44 35.5023 448.535 35.5509C448.63 35.5996 448.715 35.6667 448.784 35.7483C450.234 37.4341 451.57 39.215 452.782 41.0791C452.883 41.259 452.914 41.4697 452.87 41.671C452.826 41.8724 452.709 42.0505 452.542 42.1715C452.411 42.2676 452.256 42.3245 452.094 42.3354V42.3463ZM444.447 33.1593C444.239 33.1587 444.039 33.0763 443.89 32.9299C442.317 31.4577 440.665 30.072 438.942 28.7789C438.856 28.7143 438.783 28.6335 438.728 28.5409C438.674 28.4483 438.638 28.3458 438.622 28.2393C438.607 28.1328 438.613 28.0243 438.64 27.9201C438.666 27.8159 438.713 27.718 438.778 27.6319C438.843 27.5458 438.923 27.4733 439.016 27.4185C439.109 27.3637 439.211 27.3276 439.318 27.3124C439.424 27.2972 439.533 27.3031 439.637 27.3298C439.741 27.3565 439.839 27.4035 439.925 27.468C441.701 28.7952 443.4 30.2212 445.016 31.7392C445.137 31.8518 445.222 31.9986 445.258 32.1602C445.294 32.3218 445.281 32.4906 445.219 32.6444C445.158 32.7982 445.051 32.9297 444.913 33.0217C444.776 33.1136 444.613 33.1616 444.447 33.1593ZM434.867 25.8841C434.712 25.8826 434.561 25.8372 434.43 25.753C433.688 25.2942 432.912 24.8354 432.125 24.3875C431.033 23.7758 429.941 23.164 428.783 22.5851C428.677 22.5427 428.581 22.4787 428.502 22.3973C428.422 22.3158 428.36 22.2187 428.32 22.112C428.28 22.0054 428.263 21.8916 428.27 21.7779C428.276 21.6642 428.306 21.5531 428.358 21.4517C428.41 21.3503 428.482 21.2608 428.571 21.1889C428.659 21.1171 428.761 21.0645 428.871 21.0344C428.981 21.0043 429.096 20.9975 429.209 21.0144C429.321 21.0312 429.429 21.0713 429.526 21.1322C430.673 21.7221 431.82 22.3338 432.934 22.9674C433.742 23.4153 434.529 23.885 435.293 24.3657C435.47 24.4784 435.596 24.6543 435.647 24.8575C435.698 25.0607 435.669 25.2756 435.566 25.458C435.496 25.5827 435.395 25.6873 435.272 25.7619C435.15 25.8364 435.01 25.8785 434.867 25.8841ZM336.935 25.327C336.791 25.3254 336.65 25.2863 336.525 25.2135C336.401 25.1407 336.297 25.0368 336.225 24.9119C336.122 24.7274 336.094 24.5097 336.15 24.3055C336.205 24.1012 336.338 23.9268 336.52 23.8195C338.421 22.7271 340.376 21.6347 342.353 20.7171C342.548 20.6224 342.771 20.6083 342.976 20.6779C343.181 20.7475 343.349 20.8951 343.446 21.0885C343.537 21.2845 343.548 21.5083 343.476 21.7123C343.405 21.9163 343.257 22.0844 343.063 22.1809C341.119 23.1313 339.196 24.1472 337.328 25.2286C337.206 25.2881 337.071 25.3145 336.935 25.3051V25.327ZM424.217 20.3348C424.103 20.3355 423.991 20.3093 423.889 20.2583C421.923 19.3953 419.891 18.587 417.859 17.866C417.653 17.7921 417.485 17.6395 417.392 17.4418C417.299 17.2442 417.288 17.0175 417.362 16.8118C417.436 16.6061 417.588 16.4382 417.786 16.345C417.984 16.2518 418.21 16.2409 418.416 16.3148C420.481 17.0576 422.545 17.8769 424.555 18.7617C424.73 18.8363 424.874 18.9695 424.962 19.1386C425.05 19.3076 425.076 19.5019 425.035 19.6881C424.995 19.8743 424.892 20.0407 424.742 20.1587C424.593 20.2767 424.407 20.339 424.217 20.3348ZM347.695 19.9961C347.534 19.9972 347.376 19.9499 347.241 19.8604C347.107 19.7708 347.002 19.6431 346.941 19.4936C346.897 19.3935 346.872 19.2853 346.87 19.1756C346.868 19.0659 346.888 18.9568 346.929 18.8549C346.969 18.7531 347.03 18.6604 347.107 18.5825C347.185 18.5045 347.277 18.4429 347.378 18.4013C349.399 17.5492 351.475 16.7627 353.55 16.0526C353.655 16.0094 353.767 15.9882 353.88 15.9904C353.992 15.9926 354.104 16.018 354.206 16.0652C354.309 16.1124 354.401 16.1803 354.476 16.2646C354.551 16.3489 354.608 16.4478 354.643 16.5551C354.682 16.6604 354.701 16.7726 354.696 16.8851C354.692 16.9976 354.665 17.108 354.617 17.2099C354.569 17.3117 354.501 17.403 354.417 17.4781C354.334 17.5533 354.236 17.6109 354.129 17.6475C352.086 18.3466 350.033 19.1222 348.056 19.9524C347.938 19.9851 347.815 19.9925 347.695 19.9743V19.9961ZM412.943 16.2165C412.867 16.2271 412.79 16.2271 412.714 16.2165C410.649 15.6157 408.53 15.1241 406.422 14.6107C406.316 14.5877 406.216 14.5442 406.128 14.4827C406.039 14.4211 405.963 14.3427 405.905 14.2519C405.847 14.1611 405.807 14.0598 405.788 13.9536C405.769 13.8474 405.771 13.7384 405.794 13.633C405.816 13.5276 405.86 13.4277 405.921 13.339C405.983 13.2504 406.061 13.1748 406.152 13.1165C406.243 13.0581 406.344 13.0183 406.451 12.9991C406.557 12.98 406.666 12.9819 406.771 13.0049C408.956 13.4746 411.075 14.0317 413.173 14.6435C413.362 14.6987 413.525 14.8203 413.632 14.9861C413.739 15.1519 413.782 15.3506 413.754 15.5458C413.726 15.7411 413.629 15.9197 413.48 16.0489C413.331 16.1781 413.14 16.2493 412.943 16.2493V16.2165ZM359.034 16.0526C358.855 16.0519 358.682 15.9929 358.54 15.8844C358.398 15.7759 358.295 15.624 358.247 15.4518C358.218 15.3492 358.208 15.2418 358.22 15.1356C358.232 15.0294 358.265 14.9266 358.316 14.8331C358.368 14.7396 358.438 14.6574 358.522 14.5911C358.606 14.5248 358.702 14.4757 358.805 14.4468C360.913 13.8569 363.076 13.3544 365.228 12.8738C365.337 12.839 365.452 12.8274 365.566 12.8398C365.68 12.8523 365.79 12.8884 365.889 12.9459C365.987 13.0034 366.073 13.081 366.14 13.1737C366.208 13.2664 366.255 13.3722 366.278 13.4841C366.302 13.5961 366.302 13.7118 366.278 13.8238C366.255 13.9358 366.208 14.0416 366.141 14.1343C366.074 14.2271 365.988 14.3048 365.889 14.3624C365.79 14.4199 365.68 14.4562 365.566 14.4687C363.447 14.9166 361.328 15.4409 359.252 16.0199L359.034 16.0526ZM401.233 13.5838H401.069C398.939 13.2452 396.765 12.9721 394.624 12.7755C394.511 12.7742 394.4 12.7497 394.297 12.7034C394.194 12.6571 394.102 12.5901 394.026 12.5065C393.95 12.4229 393.892 12.3246 393.856 12.2176C393.82 12.1107 393.807 11.9974 393.817 11.885C393.826 11.7726 393.859 11.6634 393.913 11.5643C393.967 11.4653 394.041 11.3784 394.13 11.3092C394.219 11.24 394.322 11.1899 394.431 11.1621C394.541 11.1344 394.655 11.1295 394.766 11.1478C396.951 11.3445 399.135 11.6176 401.32 11.9671C401.533 12.0046 401.723 12.1238 401.85 12.2992C401.976 12.4747 402.029 12.6926 401.997 12.9066C401.959 13.0833 401.863 13.2424 401.725 13.359C401.587 13.4756 401.414 13.5431 401.233 13.5511V13.5838ZM370.766 13.5074C370.572 13.5073 370.384 13.438 370.235 13.3119C370.087 13.1858 369.989 13.0112 369.958 12.8192C369.926 12.6036 369.981 12.3843 370.11 12.2085C370.238 12.0328 370.431 11.9147 370.646 11.8797C372.831 11.552 375.016 11.2789 377.2 11.0932C377.308 11.0839 377.416 11.0958 377.519 11.1284C377.622 11.161 377.718 11.2135 377.8 11.283C377.883 11.3524 377.951 11.4375 378.001 11.5334C378.051 11.6292 378.081 11.7339 378.091 11.8415C378.1 11.9491 378.088 12.0575 378.055 12.1604C378.023 12.2634 377.97 12.3589 377.901 12.4416C377.831 12.5243 377.746 12.5925 377.65 12.6422C377.555 12.692 377.45 12.7225 377.342 12.7318C375.158 12.9175 373.027 13.1687 370.897 13.5074H370.766ZM389.282 12.415C387.097 12.3385 384.913 12.3276 382.782 12.415C382.675 12.4209 382.567 12.405 382.466 12.3683C382.365 12.3315 382.273 12.2747 382.194 12.2012C382.115 12.1277 382.053 12.0391 382.009 11.9407C381.966 11.8423 381.943 11.7361 381.941 11.6285C381.937 11.5205 381.954 11.4128 381.992 11.3116C382.03 11.2104 382.088 11.1179 382.162 11.0395C382.237 10.9611 382.326 10.8983 382.425 10.855C382.524 10.8117 382.631 10.7887 382.739 10.7873C384.924 10.7109 387.108 10.7218 389.293 10.7873C389.401 10.7902 389.507 10.8142 389.605 10.858C389.703 10.9018 389.792 10.9646 389.866 11.0427C389.94 11.1208 389.998 11.2127 390.037 11.3132C390.075 11.4138 390.093 11.5209 390.09 11.6285C390.074 11.8334 389.983 12.025 389.833 12.1663C389.684 12.3075 389.488 12.3884 389.282 12.3931V12.415Z" fill="#E0E0E0"/>
<path d="M385.164 139.427V137.679H384.738C384.089 136.495 383.105 135.529 381.908 134.904C379.468 133.665 376.769 133.02 374.032 133.02C371.295 133.02 368.597 133.665 366.156 134.904C364.96 135.529 363.975 136.495 363.327 137.679H362.901V139.372C362.901 141.043 363.993 142.726 366.178 144.004C368.62 145.237 371.318 145.879 374.054 145.879C376.79 145.879 379.488 145.237 381.93 144.004C384.093 142.769 385.175 141.087 385.164 139.427Z" fill="#37474F"/>
<path d="M374.032 144.113C380.18 144.113 385.164 141.232 385.164 137.679C385.164 134.125 380.18 131.245 374.032 131.245C367.885 131.245 362.901 134.125 362.901 137.679C362.901 141.232 367.885 144.113 374.032 144.113Z" fill="url(#paint0_linear)"/>
<path d="M371.17 84.1083V136.925C371.194 137.176 371.283 137.416 371.429 137.621C371.574 137.826 371.772 137.989 372.001 138.094C372.629 138.412 373.323 138.577 374.027 138.577C374.731 138.577 375.425 138.412 376.053 138.094C376.285 137.992 376.485 137.829 376.633 137.624C376.781 137.418 376.871 137.177 376.894 136.925V84.1083H371.17Z" fill="url(#paint1_linear)"/>
<path d="M386.868 44.5749C384.083 42.9691 381.548 42.838 379.647 43.8976L344.265 64.347L362.016 99.9478L397.519 79.411V63.8336C397.519 56.5911 392.745 47.9722 386.868 44.5749Z" fill="url(#paint2_linear)"/>
<path d="M362.016 84.3595V99.9478L340.726 87.6476V72.0702C340.726 64.8277 345.488 61.7144 351.365 65.1117C355.134 67.2965 358.444 71.6005 360.334 76.3196C361.391 78.8712 361.962 81.5981 362.016 84.3595Z" fill="#37474F"/>
<path d="M362.016 84.3595V99.9478L340.726 87.6476L360.334 76.3196C361.391 78.8712 361.962 81.5981 362.016 84.3595Z" fill="#263238"/>
<path d="M358.466 89.7013C356.511 84.0427 350.153 76.7019 344.265 73.3155C338.377 69.9291 335.209 71.7534 337.165 77.412L340.715 87.6585L362.016 99.9588C362.016 99.9588 360.432 95.3598 358.466 89.7013Z" fill="url(#paint3_linear)"/>
<path d="M373.115 84.9494L371.924 84.2612C371.668 84.1437 371.386 84.096 371.106 84.1228C370.826 84.1497 370.558 84.2502 370.329 84.4141C369.671 84.8447 369.124 85.424 368.731 86.1052C368.338 86.7865 368.111 87.5505 368.068 88.3358C368.038 88.617 368.084 88.9011 368.201 89.1585C368.319 89.4159 368.503 89.6373 368.734 89.7995L369.827 90.4331L370.034 90.0945C370.261 90.0455 370.479 89.9607 370.679 89.8432C371.336 89.415 371.884 88.8378 372.277 88.1583C372.67 87.4788 372.897 86.7162 372.94 85.9325C372.939 85.7371 372.913 85.5426 372.863 85.3536L373.115 84.9494Z" fill="#263238"/>
<path d="M371.465 85.0806C370.807 85.5088 370.259 86.086 369.867 86.7655C369.474 87.445 369.247 88.2076 369.204 88.9913C369.204 90.4332 370.22 91.0122 371.465 90.2912C372.123 89.8637 372.671 89.2866 373.064 88.6069C373.457 87.9273 373.684 87.1644 373.726 86.3805C373.759 84.9386 372.666 84.3596 371.465 85.0806Z" fill="#37474F"/>
<path d="M371.465 88.303C371.379 88.303 371.294 88.2861 371.214 88.2531C371.135 88.2202 371.062 88.1719 371.002 88.1111C370.941 88.0502 370.892 87.9779 370.859 87.8984C370.827 87.8189 370.81 87.7337 370.81 87.6476V65.1117C370.81 64.9379 370.879 64.7712 371.002 64.6483C371.124 64.5254 371.291 64.4563 371.465 64.4563C371.639 64.4563 371.806 64.5254 371.928 64.6483C372.051 64.7712 372.12 64.9379 372.12 65.1117V87.6476C372.12 87.8214 372.051 87.9881 371.928 88.1111C371.806 88.234 371.639 88.303 371.465 88.303Z" fill="#263238"/>
<path d="M372.055 65.7016V71.5786L378.358 65.1117L372.055 65.7016Z" fill="#37474F"/>
<path d="M40.6699 260.648C40.1237 260.943 30.0956 263.783 26.3815 258.879C22.6674 253.974 28.8394 246.327 25.3547 243.509C21.87 240.69 12.1041 243.509 9.75546 237.588C7.40684 231.667 14.3653 229.111 10.4546 223.136C7.9858 219.367 1.08194 217.291 1.39873 213.785C1.85754 208.662 11.2957 207.231 19.5323 212.769C27.7689 218.307 31.6141 213.763 34.2249 213.392C36.8357 213.02 42.4724 213.84 42.2976 223.016C42.1228 232.192 40.6699 260.648 40.6699 260.648Z" fill="#5FBBE8"/>
<path d="M41.3362 247.638C41.2058 247.637 41.0798 247.591 40.98 247.507C40.8802 247.424 40.813 247.307 40.79 247.179C37.917 229.701 17.6751 215.576 7.14456 212.54C7.07489 212.521 7.00974 212.488 6.95301 212.444C6.89629 212.399 6.84917 212.343 6.81447 212.28C6.77978 212.217 6.75824 212.147 6.75113 212.075C6.74403 212.004 6.75152 211.931 6.77315 211.862C6.81371 211.723 6.90785 211.606 7.03487 211.536C7.16188 211.467 7.31136 211.45 7.45042 211.491C18.2104 214.604 38.922 229.122 41.8714 247.004C41.8936 247.146 41.859 247.291 41.7752 247.407C41.6914 247.524 41.565 247.603 41.4236 247.627L41.3362 247.638Z" fill="white"/>
<path d="M17.4568 233.011C17.3367 233.012 17.2195 232.974 17.1234 232.901C17.0274 232.829 16.9578 232.727 16.9254 232.612C16.8931 232.496 16.8998 232.373 16.9445 232.261C16.9892 232.15 17.0695 232.056 17.1728 231.995C17.5005 231.798 25.3001 227.243 32.9687 229.373C33.1135 229.411 33.2375 229.505 33.3133 229.634C33.3891 229.763 33.4105 229.917 33.3728 230.061C33.3352 230.206 33.2415 230.33 33.1124 230.406C32.9834 230.482 32.8295 230.503 32.6846 230.466C25.4531 228.456 17.8064 232.923 17.7299 232.967C17.6449 233.008 17.5502 233.023 17.4568 233.011Z" fill="white"/>
<path d="M326.241 168.353C330.545 168.943 337.875 166.452 338.4 159.286C338.924 152.12 341.884 150.175 347.314 149.007C352.743 147.838 354.338 145.948 354.96 142.54C355.583 139.131 351.454 135.057 352.612 129.923C353.77 124.788 357.637 124.799 361.438 118.999C363.874 115.263 358.882 109.561 350.569 112.008C342.256 114.455 342.922 119.818 334.609 120.506C326.296 121.195 321.085 126.241 320.922 132.523C320.758 138.804 326.241 168.353 326.241 168.353Z" fill="#5FBBE8"/>
<path opacity="0.2" d="M326.241 168.353C330.545 168.943 337.875 166.452 338.4 159.286C338.924 152.12 341.884 150.175 347.314 149.007C352.743 147.838 354.338 145.948 354.96 142.54C355.583 139.131 351.454 135.057 352.612 129.923C353.77 124.788 357.637 124.799 361.438 118.999C363.874 115.263 358.882 109.561 350.569 112.008C342.256 114.455 342.922 119.818 334.609 120.506C326.296 121.195 321.085 126.241 320.922 132.523C320.758 138.804 326.241 168.353 326.241 168.353Z" fill="black"/>
<path d="M324.668 154.611H324.603C324.532 154.596 324.466 154.568 324.406 154.528C324.347 154.488 324.296 154.436 324.256 154.377C324.217 154.317 324.189 154.25 324.176 154.179C324.162 154.109 324.162 154.036 324.177 153.966C328.197 134.096 350.121 115.907 355.462 114.05C355.607 114.003 355.765 114.014 355.901 114.083C356.038 114.152 356.141 114.271 356.189 114.416C356.237 114.561 356.225 114.719 356.156 114.855C356.088 114.992 355.968 115.095 355.823 115.143C350.601 116.956 329.18 134.806 325.236 154.239C325.196 154.355 325.118 154.454 325.015 154.521C324.913 154.589 324.791 154.62 324.668 154.611Z" fill="white"/>
<path d="M36.0815 147.565C36.1349 146.58 36.4199 145.621 36.9134 144.767C37.4069 143.913 38.095 143.187 38.9217 142.649L184.11 58.8194C184.99 58.3775 185.961 58.1473 186.945 58.1473C187.93 58.1473 188.9 58.3775 189.78 58.8194L192.981 60.6765C193.809 61.2127 194.499 61.9379 194.992 62.7925C195.486 63.6471 195.77 64.6066 195.821 65.5922V176.884C195.765 177.869 195.479 178.826 194.985 179.68C194.492 180.534 193.806 181.26 192.981 181.8L47.7919 265.618C46.9119 266.066 45.9388 266.299 44.9517 266.299C43.9646 266.299 42.9915 266.066 42.1115 265.618L38.9217 263.772C38.0962 263.233 37.4091 262.507 36.9157 261.653C36.4224 260.799 36.1366 259.841 36.0815 258.857V147.565Z" fill="#5FBBE8"/>
<path opacity="0.3" d="M36.0815 147.565C36.1349 146.58 36.4199 145.621 36.9134 144.767C37.4069 143.913 38.095 143.187 38.9217 142.649L184.11 58.8194C184.99 58.3775 185.961 58.1473 186.945 58.1473C187.93 58.1473 188.9 58.3775 189.78 58.8194L192.981 60.6765C193.809 61.2127 194.499 61.9379 194.992 62.7925C195.486 63.6471 195.77 64.6066 195.821 65.5922V176.884C195.765 177.869 195.479 178.826 194.985 179.68C194.492 180.534 193.806 181.26 192.981 181.8L47.7919 265.618C46.9119 266.066 45.9388 266.299 44.9517 266.299C43.9646 266.299 42.9915 266.066 42.1115 265.618L38.9217 263.772C38.0962 263.233 37.4091 262.507 36.9157 261.653C36.4224 260.799 36.1366 259.841 36.0815 258.857V147.565Z" fill="black"/>
<path d="M49.3868 151.978L36.9118 144.768C36.4018 145.615 36.116 146.577 36.0815 147.565V258.857C36.1366 259.841 36.4224 260.799 36.9157 261.653C37.4091 262.507 38.0962 263.233 38.9217 263.772L42.1115 265.618C42.9915 266.066 43.9646 266.299 44.9517 266.299C45.9388 266.299 46.9119 266.066 47.7919 265.618L49.3868 264.701V151.978Z" fill="#5FBBE8"/>
<path opacity="0.5" d="M49.3868 151.978L36.9118 144.768C36.4018 145.615 36.116 146.577 36.0815 147.565V258.857C36.1366 259.841 36.4224 260.799 36.9157 261.653C37.4091 262.507 38.0962 263.233 38.9217 263.772L42.1115 265.618C42.9915 266.066 43.9646 266.299 44.9517 266.299C45.9388 266.299 46.9119 266.066 47.7919 265.618L49.3868 264.701V151.978Z" fill="black"/>
<path d="M195.821 65.5922V176.884C195.784 177.903 195.479 178.894 194.936 179.757C194.517 180.484 193.951 181.116 193.276 181.614L193.166 181.68L192.981 181.8L47.792 265.618C47.5141 265.815 47.1912 265.938 46.8532 265.976C46.5153 266.014 46.1731 265.966 45.8585 265.837C45.556 265.646 45.3116 265.377 45.1517 265.057C44.9919 264.737 44.9227 264.38 44.9518 264.024V152.688C44.9271 152.289 44.9994 151.891 45.1625 151.527C45.3256 151.162 45.5746 150.843 45.8882 150.596C46.2018 150.349 46.5707 150.181 46.9631 150.108C47.3556 150.035 47.76 150.058 48.1415 150.175L109.195 164.693L117.191 166.594C118.135 166.771 119.109 166.686 120.008 166.349C120.907 166.012 121.697 165.436 122.293 164.682L131.556 151.781L193.909 64.9695C194.958 63.5057 195.821 63.7789 195.821 65.5922Z" fill="#5FBBE8"/>
<path opacity="0.2" d="M195.821 65.5922V176.884C195.784 177.903 195.479 178.894 194.936 179.757C194.517 180.484 193.951 181.116 193.276 181.614L193.166 181.68L192.981 181.8L47.792 265.618C47.5141 265.815 47.1912 265.938 46.8532 265.976C46.5153 266.014 46.1731 265.966 45.8585 265.837C45.556 265.646 45.3116 265.377 45.1517 265.057C44.9919 264.737 44.9227 264.38 44.9518 264.024V152.688C44.9271 152.289 44.9994 151.891 45.1625 151.527C45.3256 151.162 45.5746 150.843 45.8882 150.596C46.2018 150.349 46.5707 150.181 46.9631 150.108C47.3556 150.035 47.76 150.058 48.1415 150.175L109.195 164.693L117.191 166.594C118.135 166.771 119.109 166.686 120.008 166.349C120.907 166.012 121.697 165.436 122.293 164.682L131.556 151.781L193.909 64.9695C194.958 63.5057 195.821 63.7789 195.821 65.5922Z" fill="black"/>
<path d="M192.981 181.8L193.167 181.68L193.276 181.614C193.951 181.116 194.517 180.484 194.936 179.757C195.473 178.907 195.778 177.932 195.821 176.928L131.556 151.803L174.596 192.44L192.981 181.8Z" fill="#BA68C8"/>
<path opacity="0.6" d="M192.981 181.8L193.167 181.68L193.276 181.614C193.951 181.116 194.517 180.484 194.936 179.757C195.473 178.907 195.778 177.932 195.821 176.928L131.556 151.803L174.596 192.44L192.981 181.8Z" fill="black"/>
<path d="M44.9518 264.024C44.91 264.387 44.9708 264.754 45.1272 265.084C45.2836 265.414 45.5293 265.694 45.8366 265.892C46.1512 266.021 46.4934 266.069 46.8314 266.03C47.1694 265.992 47.4923 265.869 47.7701 265.673L97.7794 236.714L109.195 164.617L44.9518 262.134V264.024Z" fill="#5FBBE8"/>
<path opacity="0.6" d="M44.9518 264.024C44.91 264.387 44.9708 264.754 45.1272 265.084C45.2836 265.414 45.5293 265.694 45.8366 265.892C46.1512 266.021 46.4934 266.069 46.8314 266.03C47.1694 265.992 47.4923 265.869 47.7701 265.673L97.7794 236.714L109.195 164.617L44.9518 262.134V264.024Z" fill="black"/>
<path d="M194.936 179.757C194.516 180.484 193.951 181.116 193.276 181.614L193.166 181.68L47.7919 265.618C47.5141 265.815 47.1912 265.938 46.8532 265.976C46.5152 266.014 46.173 265.966 45.8584 265.837L115.389 154.84C116.786 152.617 118.938 150.971 121.449 150.205C123.961 149.438 126.665 149.603 129.065 150.667L194.936 179.757Z" fill="#5FBBE8"/>
<path opacity="0.2" d="M194.936 179.757C194.516 180.484 193.951 181.116 193.276 181.614L193.166 181.68L47.7919 265.618C47.5141 265.815 47.1912 265.938 46.8532 265.976C46.5152 266.014 46.173 265.966 45.8584 265.837L115.389 154.84C116.786 152.617 118.938 150.971 121.449 150.205C123.961 149.438 126.665 149.603 129.065 150.667L194.936 179.757Z" fill="black"/>
<path d="M44.9521 149.411L111.73 178.905C114.134 179.967 116.84 180.126 119.352 179.353C121.864 178.581 124.014 176.928 125.406 174.699L195.526 62.4789L44.9521 149.411Z" fill="#BA68C8"/>
<path opacity="0.6" d="M44.9521 149.411L111.73 178.905C114.134 179.967 116.84 180.126 119.352 179.353C121.864 178.581 124.014 176.928 125.406 174.699L195.526 62.4789L44.9521 149.411Z" fill="black"/>
<path d="M44.9521 149.411L112.199 174.536C114.523 175.403 117.073 175.454 119.43 174.68C121.786 173.905 123.809 172.352 125.166 170.275L195.526 62.4789L44.9521 149.411Z" fill="#5FBBE8"/>
<path opacity="0.2" d="M44.9521 149.411L112.199 174.536C114.523 175.403 117.073 175.454 119.43 174.68C121.786 173.905 123.809 172.352 125.166 170.275L195.526 62.4789L44.9521 149.411Z" fill="black"/>
<path d="M60.8784 161.274C60.9292 160.288 61.2131 159.329 61.7068 158.474C62.2006 157.62 62.8901 156.895 63.7186 156.358L208.907 72.5288C209.787 72.0817 210.76 71.8486 211.747 71.8486C212.735 71.8486 213.708 72.0817 214.588 72.5288L217.788 74.3749C218.613 74.9143 219.299 75.6405 219.791 76.4946C220.282 77.3487 220.566 78.3066 220.618 79.2906V190.583C220.564 191.566 220.28 192.524 219.788 193.377C219.297 194.231 218.612 194.958 217.788 195.498L72.5888 279.317C71.7092 279.759 70.7384 279.989 69.754 279.989C68.7696 279.989 67.7989 279.759 66.9193 279.317L63.7186 277.471C62.8937 276.931 62.207 276.205 61.7137 275.351C61.2204 274.497 60.9343 273.539 60.8784 272.555V161.274Z" fill="#455A64"/>
<path d="M60.8784 161.274C60.9292 160.288 61.2131 159.329 61.7068 158.474C62.2006 157.62 62.8901 156.895 63.7186 156.358L208.907 72.5288C209.787 72.0817 210.76 71.8486 211.747 71.8486C212.735 71.8486 213.708 72.0817 214.588 72.5288L217.788 74.3749C218.613 74.9143 219.299 75.6405 219.791 76.4946C220.282 77.3487 220.566 78.3066 220.618 79.2906V190.583C220.564 191.566 220.28 192.524 219.788 193.377C219.297 194.231 218.612 194.958 217.788 195.498L72.5888 279.317C71.7092 279.759 70.7384 279.989 69.754 279.989C68.7696 279.989 67.7989 279.759 66.9193 279.317L63.7186 277.471C62.8937 276.931 62.207 276.205 61.7137 275.351C61.2204 274.497 60.9343 273.539 60.8784 272.555V161.274Z" fill="#455A64"/>
<path d="M74.1946 165.709L61.7086 158.51C61.1973 159.356 60.9114 160.319 60.8784 161.307V272.566C60.9343 273.55 61.2204 274.508 61.7137 275.362C62.207 276.216 62.8937 276.942 63.7186 277.482L66.9193 279.328C67.7989 279.77 68.7696 280 69.754 280C70.7384 280 71.7092 279.77 72.5888 279.328L74.1946 278.399V165.709Z" fill="#263238"/>
<path d="M220.629 79.2907V190.583C220.592 191.601 220.287 192.593 219.744 193.456C219.324 194.183 218.759 194.815 218.083 195.313L217.974 195.378L217.788 195.498L72.5997 279.317C72.3218 279.513 71.999 279.636 71.661 279.674C71.323 279.712 70.9808 279.665 70.6662 279.535C70.3589 279.338 70.1132 279.058 69.9568 278.728C69.8004 278.398 69.7396 278.03 69.7814 277.667V166.386C69.7567 165.988 69.829 165.589 69.992 165.225C70.1551 164.861 70.4042 164.541 70.7178 164.294C71.0314 164.047 71.4003 163.88 71.7927 163.807C72.1852 163.733 72.5895 163.757 72.9711 163.874L134.024 178.392L142.021 180.292C142.965 180.469 143.939 180.385 144.838 180.048C145.737 179.711 146.527 179.134 147.122 178.381L156.375 165.48L218.728 78.668C219.733 77.2261 220.629 77.4773 220.629 79.2907Z" fill="#37474F"/>
<path d="M217.789 195.498L217.975 195.378L218.084 195.313C218.76 194.815 219.325 194.183 219.744 193.456C220.275 192.608 220.576 191.637 220.618 190.637L156.364 165.513L199.393 206.127L217.789 195.498Z" fill="#263238"/>
<path d="M69.7596 277.678C69.7179 278.041 69.7787 278.409 69.9351 278.739C70.0915 279.069 70.3372 279.349 70.6445 279.546C70.9591 279.676 71.3013 279.723 71.6393 279.685C71.9772 279.647 72.3001 279.524 72.578 279.328L122.565 250.467L133.981 178.37L69.7378 275.81L69.7596 277.678Z" fill="url(#paint4_linear)"/>
<path d="M219.733 193.456C219.313 194.183 218.748 194.815 218.072 195.313L217.963 195.378L72.5995 279.317C72.3217 279.513 71.9988 279.636 71.6608 279.674C71.3228 279.712 70.9806 279.665 70.666 279.535L140.185 168.549C141.579 166.322 143.73 164.672 146.241 163.902C148.753 163.131 151.459 163.292 153.862 164.355L219.733 193.456Z" fill="#37474F"/>
<path d="M69.7598 163.12L136.537 192.615C138.94 193.673 141.644 193.83 144.154 193.058C146.663 192.286 148.811 190.635 150.203 188.409L220.323 76.1337L69.7598 163.12Z" fill="url(#paint5_linear)"/>
<path d="M69.7598 163.12L136.996 188.245C139.321 189.115 141.874 189.168 144.233 188.393C146.592 187.619 148.617 186.064 149.973 183.985L220.323 76.1337L69.7598 163.12Z" fill="#37474F"/>
<path d="M167.375 249.615V138.323C167.476 136.212 168.136 134.165 169.287 132.391L238.533 35.9668C239.796 34.2051 241.556 32.8593 243.587 32.1006C245.617 31.3419 247.828 31.2047 249.937 31.7065L315.054 47.1855C317.153 47.744 319.177 48.5508 321.084 49.5888L324.285 51.4349C325.108 51.9762 325.792 52.7029 326.284 53.5565C326.775 54.4102 327.06 55.3672 327.114 56.3506V167.643C327.058 168.626 326.773 169.582 326.282 170.435C325.79 171.289 325.107 172.016 324.285 172.558L179.085 256.377C178.206 256.821 177.235 257.053 176.251 257.053C175.266 257.053 174.295 256.821 173.416 256.377L170.215 254.531C169.39 253.991 168.703 253.265 168.209 252.411C167.716 251.558 167.43 250.6 167.375 249.615Z" fill="#5FBBE8"/>
<path opacity="0.3" d="M167.375 249.615V138.323C167.476 136.212 168.136 134.165 169.287 132.391L238.533 35.9668C239.796 34.2051 241.556 32.8593 243.587 32.1006C245.617 31.3419 247.828 31.2047 249.937 31.7065L315.054 47.1855C317.153 47.744 319.177 48.5508 321.084 49.5888L324.285 51.4349C325.108 51.9762 325.792 52.7029 326.284 53.5565C326.775 54.4102 327.06 55.3672 327.114 56.3506V167.643C327.058 168.626 326.773 169.582 326.282 170.435C325.79 171.289 325.107 172.016 324.285 172.558L179.085 256.377C178.206 256.821 177.235 257.053 176.251 257.053C175.266 257.053 174.295 256.821 173.416 256.377L170.215 254.531C169.39 253.991 168.703 253.265 168.209 252.411C167.716 251.558 167.43 250.6 167.375 249.615Z" fill="white"/>
<path d="M180.681 84.5341V226.544C180.681 228.346 181.959 229.089 183.521 228.183L319.839 149.531C320.667 148.993 321.355 148.268 321.849 147.414C322.342 146.559 322.627 145.6 322.68 144.615V2.60538C322.68 0.792029 321.412 0.0601318 319.839 0.96681L183.521 79.6184C182.694 80.1566 182.006 80.8823 181.513 81.7364C181.019 82.5906 180.734 83.5491 180.681 84.5341Z" fill="#FAFAFA"/>
<path d="M182.253 229.133C181.901 229.136 181.554 229.045 181.248 228.871C180.874 228.622 180.575 228.275 180.383 227.87C180.191 227.464 180.112 227.013 180.156 226.566V84.556C180.208 83.4736 180.517 82.4192 181.059 81.4806C181.6 80.542 182.358 79.7463 183.269 79.1596L319.588 0.508005C319.944 0.218172 320.379 0.0434719 320.837 0.00711041C321.294 -0.0292511 321.752 0.0744468 322.149 0.304434C322.546 0.534421 322.864 0.879805 323.06 1.2947C323.256 1.70959 323.321 2.17435 323.247 2.62723V144.637C323.196 145.718 322.887 146.771 322.345 147.708C321.804 148.645 321.045 149.439 320.134 150.023L183.815 228.674C183.345 228.963 182.805 229.121 182.253 229.133ZM321.106 1.06512C320.753 1.0853 320.411 1.19427 320.112 1.38192L183.793 80.0881C183.051 80.5807 182.433 81.2384 181.988 82.0098C181.543 82.7811 181.282 83.6452 181.226 84.5341V226.544C181.161 226.8 181.181 227.071 181.283 227.314C181.386 227.558 181.565 227.762 181.794 227.894C182.023 228.026 182.289 228.08 182.551 228.048C182.813 228.015 183.058 227.897 183.247 227.713L319.566 149.061C320.309 148.569 320.927 147.912 321.372 147.14C321.818 146.369 322.078 145.504 322.133 144.615V2.60539C322.164 2.3492 322.129 2.08938 322.031 1.85047C321.934 1.61155 321.777 1.40142 321.576 1.23991C321.438 1.14019 321.276 1.07977 321.106 1.06512Z" fill="#E0E0E0"/>
<path d="M177.742 141.032L167.911 135.352C167.592 136.311 167.416 137.312 167.386 138.323V249.615C167.441 250.6 167.727 251.558 168.22 252.411C168.714 253.265 169.401 253.991 170.226 254.531L173.416 256.377C174.294 256.824 175.266 257.057 176.251 257.057C177.236 257.057 178.208 256.824 179.086 256.377L180.451 255.601L177.742 141.032Z" fill="#5FBBE8"/>
<g opacity="0.1">
<path opacity="0.1" d="M177.742 141.032L167.911 135.352C167.592 136.311 167.416 137.312 167.386 138.323V249.615C167.441 250.6 167.727 251.558 168.22 252.411C168.714 253.265 169.401 253.991 170.226 254.531L173.416 256.377C174.294 256.824 175.266 257.057 176.251 257.057C177.236 257.057 178.208 256.824 179.086 256.377L180.451 255.601L177.742 141.032Z" fill="black"/>
</g>
<path d="M327.126 56.3506V167.643C327.089 168.662 326.784 169.653 326.241 170.516C325.821 171.243 325.256 171.875 324.58 172.373L324.471 172.438L324.285 172.558L179.097 256.377C178.819 256.573 178.496 256.696 178.158 256.734C177.82 256.772 177.478 256.725 177.163 256.595C176.856 256.398 176.61 256.118 176.454 255.788C176.297 255.458 176.237 255.09 176.278 254.727V143.446C176.254 143.048 176.326 142.649 176.489 142.285C176.652 141.921 176.901 141.601 177.215 141.354C177.528 141.107 177.897 140.94 178.29 140.867C178.682 140.793 179.087 140.817 179.468 140.934L240.489 155.452L248.485 157.352C249.43 157.531 250.407 157.448 251.308 157.111C252.209 156.774 253.001 156.196 253.597 155.441L262.861 142.54L325.214 55.728C326.263 54.2861 327.126 54.5373 327.126 56.3506Z" fill="#5FBBE8"/>
<path opacity="0.3" d="M327.126 56.3506V167.643C327.089 168.662 326.784 169.653 326.241 170.516C325.821 171.243 325.256 171.875 324.58 172.373L324.471 172.438L324.285 172.558L179.097 256.377C178.819 256.573 178.496 256.696 178.158 256.734C177.82 256.772 177.478 256.725 177.163 256.595C176.856 256.398 176.61 256.118 176.454 255.788C176.297 255.458 176.237 255.09 176.278 254.727V143.446C176.254 143.048 176.326 142.649 176.489 142.285C176.652 141.921 176.901 141.601 177.215 141.354C177.528 141.107 177.897 140.94 178.29 140.867C178.682 140.793 179.087 140.817 179.468 140.934L240.489 155.452L248.485 157.352C249.43 157.531 250.407 157.448 251.308 157.111C252.209 156.774 253.001 156.196 253.597 155.441L262.861 142.54L325.214 55.728C326.263 54.2861 327.126 54.5373 327.126 56.3506Z" fill="white"/>
<path d="M324.285 172.558L324.47 172.438L324.58 172.373C325.255 171.875 325.82 171.243 326.24 170.516C326.771 169.664 327.072 168.689 327.114 167.686L262.86 142.562L305.889 183.187L324.285 172.558Z" fill="#5FBBE8"/>
<path d="M176.256 254.738C176.214 255.101 176.275 255.469 176.432 255.799C176.588 256.129 176.834 256.409 177.141 256.606C177.456 256.736 177.798 256.783 178.136 256.745C178.474 256.707 178.797 256.584 179.075 256.388L229.062 227.527L240.477 155.43L176.234 252.87L176.256 254.738Z" fill="#5FBBE8"/>
<path d="M326.241 170.516C325.821 171.243 325.256 171.875 324.58 172.373L324.471 172.438L179.097 256.377C178.819 256.573 178.496 256.696 178.158 256.734C177.82 256.772 177.478 256.725 177.163 256.595L246.682 145.609C248.076 143.385 250.224 141.737 252.734 140.966C255.243 140.196 257.946 140.355 260.348 141.415L326.241 170.516Z" fill="#5FBBE8"/>
<path opacity="0.3" d="M326.241 170.516C325.821 171.243 325.256 171.875 324.58 172.373L324.471 172.438L179.097 256.377C178.819 256.573 178.496 256.696 178.158 256.734C177.82 256.772 177.478 256.725 177.163 256.595L246.682 145.609C248.076 143.385 250.224 141.737 252.734 140.966C255.243 140.196 257.946 140.355 260.348 141.415L326.241 170.516Z" fill="white"/>
<path d="M240.707 117.24C239.432 117.437 238.129 117.322 236.909 116.903C235.689 116.484 234.589 115.775 233.705 114.837C232.044 112.991 231.214 110.14 231.214 106.305C231.217 101.979 232.144 97.7033 233.934 93.7647C235.771 89.7118 238.308 86.0141 241.428 82.8409C244.782 79.3624 248.606 76.3695 252.788 73.9489C256.889 71.5893 260.388 70.2821 263.286 70.0272C266.203 69.7651 268.399 70.5188 269.906 72.2666C271.414 74.0144 272.156 76.6908 272.156 80.2738C272.22 83.8273 271.378 87.3384 269.709 90.4766C268.24 93.3187 265.998 95.6887 263.243 97.315C262.291 97.9908 261.125 98.294 259.965 98.167C259.553 98.0853 259.172 97.8862 258.87 97.5936C258.568 97.301 258.356 96.9274 258.261 96.5175C257.352 98.238 256.196 99.8167 254.831 101.204C253.45 102.629 251.876 103.853 250.156 104.841C247.185 106.524 244.814 107.026 243.066 106.447C241.318 105.868 240.488 104.099 240.488 101.149C240.513 97.4427 241.655 93.8299 243.765 90.7825C246.062 87.4041 249.114 84.6066 252.679 82.6115C254.168 81.7248 255.786 81.0761 257.475 80.6889C258.73 80.3487 260.054 80.3487 261.309 80.6889V92.1917C261.309 93.1202 261.473 93.6883 261.79 93.9067C262.106 94.1252 262.631 94.016 263.374 93.5899C264.757 92.6898 265.782 91.333 266.268 89.7557C267.007 87.625 267.358 85.3793 267.306 83.1249C267.306 80.2556 266.68 78.1691 265.427 76.8655C264.758 76.2111 263.941 75.7268 263.046 75.4531C262.151 75.1794 261.203 75.1243 260.282 75.2925C257.615 75.7 255.061 76.6519 252.778 78.089C247.948 80.7681 243.784 84.502 240.597 89.0128C237.652 93.246 236.088 98.2863 236.119 103.443C236.119 106.582 236.763 108.872 238.052 110.314C238.721 111.036 239.557 111.581 240.487 111.902C241.417 112.222 242.412 112.307 243.383 112.15C246.102 111.764 248.708 110.808 251.03 109.342C252.632 108.415 254.149 107.348 255.563 106.152C256.879 105.066 258.077 103.843 259.135 102.504C259.245 102.363 259.373 102.238 259.518 102.132C259.616 102.078 259.714 102.132 259.802 102.263L261.003 104.448C261.047 104.535 261.08 104.627 261.101 104.721C261.063 104.965 260.944 105.188 260.763 105.355C259.443 106.942 257.98 108.404 256.393 109.724C254.722 111.126 252.935 112.383 251.052 113.482C247.914 115.464 244.385 116.746 240.707 117.24ZM254.908 96.7032C255.948 95.476 256.554 93.9403 256.634 92.3337V85.6701C255.075 85.8018 253.573 86.3199 252.264 87.1776C250.18 88.3498 248.405 90.0011 247.086 91.9951C245.849 93.8243 245.183 95.9803 245.175 98.1889C245.175 100.035 245.633 101.138 246.562 101.466C247.49 101.794 248.921 101.466 250.877 100.297C252.46 99.3813 253.845 98.1596 254.951 96.7032H254.908Z" fill="#E0E0E0"/>
<path d="M101.581 128.186L90.93 122.014H90.8536C87.2159 119.96 82.2019 120.266 76.6526 123.467C65.4993 129.901 56.4653 145.554 56.4653 158.423C56.4653 164.857 58.7156 169.347 62.3533 171.531L72.2612 177.201L74.0527 174.219C76.0845 173.763 78.0363 173.005 79.8423 171.968C90.9847 165.523 100.03 149.869 100.03 137.012C100.024 135.274 99.8109 133.543 99.396 131.856L101.581 128.186Z" fill="#F28F8F"/>
<path d="M101.581 128.186L90.93 122.014H90.8536C87.2159 119.96 82.2019 120.266 76.6526 123.467C65.4993 129.901 56.4653 145.554 56.4653 158.423C56.4653 164.857 58.7156 169.347 62.3533 171.531L72.2612 177.201L74.0527 174.219C76.0845 173.763 78.0363 173.005 79.8423 171.968C90.9847 165.523 100.03 149.869 100.03 137.012C100.024 135.274 99.8109 133.543 99.396 131.856L101.581 128.186Z" fill="#5FBBE8"/>
<path opacity="0.4" d="M101.581 128.186L90.93 122.014H90.8536C87.2159 119.96 82.2019 120.266 76.6526 123.467C65.4993 129.901 56.4653 145.554 56.4653 158.423C56.4653 164.857 58.7156 169.347 62.3533 171.531L72.2612 177.201L74.0527 174.219C76.0845 173.763 78.0363 173.005 79.8423 171.968C90.9847 165.523 100.03 149.869 100.03 137.012C100.024 135.274 99.8109 133.543 99.396 131.856L101.581 128.186Z" fill="black"/>
<path d="M86.8879 129.333C75.7347 135.778 66.7007 151.432 66.7007 164.289C66.7007 177.146 75.7347 182.379 86.8879 175.945C98.0412 169.51 107.075 153.857 107.075 140.988C107.075 128.12 98.0412 122.898 86.8879 129.333Z" fill="#5FBBE8"/>
<path d="M79.0009 167.369C78.7933 167.369 78.6841 167.249 78.6841 167.063C78.7056 166.858 78.7648 166.658 78.8589 166.474L79.8748 164.191C79.9421 163.967 80.0753 163.769 80.2571 163.622C80.4084 163.554 80.5718 163.517 80.7378 163.513C81.6467 163.459 82.5438 163.279 83.4032 162.978C84.5459 162.593 85.6444 162.088 86.6803 161.47C88.2921 160.597 89.7055 159.4 90.8314 157.953C91.6758 156.859 92.1468 155.522 92.175 154.141C92.175 151.726 90.7003 151.377 87.7509 153.048L84.8779 154.785C84.4082 155.047 84.0805 155.146 83.8838 155.058C83.6872 154.971 83.5889 154.709 83.5889 154.272V153.365C83.5733 152.979 83.6763 152.598 83.8838 152.273C84.1469 151.917 84.4867 151.626 84.8779 151.421L87.729 149.771C88.8715 149.149 89.8403 148.252 90.5474 147.16C91.1398 146.244 91.4652 145.181 91.4868 144.091C91.4868 141.753 89.841 141.534 86.5492 143.435C84.5249 144.589 82.7022 146.065 81.1529 147.805C81.0073 147.969 80.8464 148.119 80.6722 148.253C80.6079 148.283 80.5353 148.291 80.4659 148.275C80.3965 148.259 80.3345 148.221 80.2899 148.165L79.3177 147.073C79.2634 147.023 79.22 146.962 79.1899 146.894C79.1599 146.827 79.1439 146.754 79.1429 146.68C79.165 146.429 79.2731 146.193 79.4488 146.013C80.4165 144.803 81.5156 143.704 82.7259 142.736C84.1353 141.588 85.6369 140.557 87.2156 139.656C88.6408 138.769 90.2131 138.143 91.8582 137.809C92.3759 137.683 92.9149 137.672 93.4376 137.775C93.9602 137.879 94.4539 138.096 94.8841 138.41C95.2721 138.784 95.5714 139.24 95.7605 139.745C95.9495 140.25 96.0233 140.79 95.9765 141.327C95.9519 142.53 95.6843 143.715 95.19 144.812C94.662 146.077 93.9233 147.245 93.0052 148.264C93.4767 148.106 93.9806 148.07 94.4697 148.16C94.9588 148.249 95.4171 148.462 95.8017 148.777C96.1383 149.169 96.3937 149.624 96.5531 150.115C96.7125 150.606 96.7727 151.124 96.7303 151.639C96.6468 154.061 95.7977 156.394 94.3052 158.303C92.473 160.76 90.1333 162.794 87.445 164.267C83.5998 166.517 80.7851 167.551 79.0009 167.369Z" fill="white"/>
<defs>
<linearGradient id="paint0_linear" x1="374.032" y1="131.245" x2="374.032" y2="144.113" gradientUnits="userSpaceOnUse">
<stop offset="0.0239582" stop-color="#803BC8"/>
<stop offset="0.89375" stop-color="#A35FB8" stop-opacity="0.98"/>
</linearGradient>
<linearGradient id="paint1_linear" x1="374.032" y1="84.1083" x2="374.032" y2="138.577" gradientUnits="userSpaceOnUse">
<stop offset="0.0239582" stop-color="#803BC8"/>
<stop offset="0.89375" stop-color="#A35FB8" stop-opacity="0.98"/>
</linearGradient>
<linearGradient id="paint2_linear" x1="370.892" y1="43.2136" x2="370.892" y2="99.9478" gradientUnits="userSpaceOnUse">
<stop offset="0.0239582" stop-color="#803BC8"/>
<stop offset="0.89375" stop-color="#A35FB8" stop-opacity="0.98"/>
</linearGradient>
<linearGradient id="paint3_linear" x1="349.302" y1="71.6144" x2="349.302" y2="99.9588" gradientUnits="userSpaceOnUse">
<stop offset="0.0239582" stop-color="#803BC8"/>
<stop offset="0.89375" stop-color="#A35FB8" stop-opacity="0.98"/>
</linearGradient>
<linearGradient id="paint4_linear" x1="101.859" y1="178.37" x2="101.859" y2="279.698" gradientUnits="userSpaceOnUse">
<stop offset="0.0239582" stop-color="#803BC8"/>
<stop offset="0.89375" stop-color="#A35FB8" stop-opacity="0.98"/>
</linearGradient>
<linearGradient id="paint5_linear" x1="145.041" y1="76.1337" x2="145.041" y2="193.541" gradientUnits="userSpaceOnUse">
<stop offset="0.0239582" stop-color="#803BC8"/>
<stop offset="0.89375" stop-color="#A35FB8" stop-opacity="0.98"/>
</linearGradient>
</defs>
</svg>
